<?xml version="1.0" encoding="UTF-8" standalone="no"?>
<svg xmlns="http://www.w3.org/2000/svg" width="64" height="64" viewBox="0 0 64 64">
  <defs>
    <linearGradient id="features-gradient" x1="0%" y1="0%" x2="100%" y2="100%">
      <stop offset="0%" stop-color="#6a11cb" />
      <stop offset="100%" stop-color="#2575fc" />
    </linearGradient>
  </defs>
  
  <!-- Background circle -->
  <circle cx="32" cy="32" r="30" fill="#1f1f1f" />
  
  <!-- Gear icon representing features -->
  <path d="M32,17 C33.1,17 34.2,17.1 35.2,17.4 L36.5,21.8 C37.5,22.2 38.5,22.7 39.3,23.4 L43.7,22.1 C45.2,23.4 46.5,24.7 47.6,26.3 L45.3,30.3 C45.7,31.4 46,32.6 46,33.8 C46,35 45.7,36.2 45.3,37.3 L47.6,41.2 C46.5,42.7 45.2,44.1 43.7,45.3 L39.3,44 C38.5,44.7 37.5,45.2 36.5,45.6 L35.2,50 C34.2,50.2 33.1,50.4 32,50.4 C30.9,50.4 29.8,50.2 28.8,50 L27.5,45.6 C26.5,45.2 25.5,44.7 24.7,44 L20.3,45.3 C18.8,44 17.5,42.7 16.4,41.2 L18.7,37.3 C18.3,36.2 18,35 18,33.8 C18,32.6 18.3,31.4 18.7,30.3 L16.4,26.3 C17.5,24.7 18.8,23.4 20.3,22.1 L24.7,23.4 C25.5,22.7 26.5,22.2 27.5,21.8 L28.8,17.4 C29.8,17.1 30.9,17 32,17 Z" fill="url(#features-gradient)" />
  
  <!-- Inner circle -->
  <circle cx="32" cy="34" r="8" fill="#ffffff" />
</svg>